<svg width="67.733mm" height="67.733mm" version="1.1" viewBox="0 0 67.733 67.733" xml:space="preserve" xmlns="http://www.w3.org/2000/svg" xmlns:xlink="http://www.w3.org/1999/xlink"><defs><linearGradient id="linearGradient998" x1="-7.1438" x2="74.136" y1="43.917" y2="43.917" gradientTransform="matrix(.83333 0 0 .83333 -1.1906 .54622)" gradientUnits="userSpaceOnUse"><stop stop-color="#4cc3cc" offset="0"/><stop stop-color="#3a6db5" offset="1"/></linearGradient></defs><g transform="translate(7.1438 -3.2773)"><path d="m-7.1438 37.144v-33.867l19.085 0.00898 0.54371 0.69432c0.29904 0.38187 1.0669 1.372 1.7063 2.2004 0.63943 0.82833 1.4901 1.9218 1.8905 2.4299 0.40032 0.50813 1.2517 1.5991 1.892 2.4245s1.885 2.4257 2.7661 3.5564 2.1657 2.7861 2.8549 3.6786c0.68911 0.89253 1.4469 1.8609 1.684 2.1519 0.23707 0.29104 1.0551 1.3388 1.8179 2.3283s1.713 2.2145 2.1116 2.7222c0.39861 0.50769 1.1375 1.4549 1.642 2.1048 0.50447 0.64997 1.6885 2.1713 2.6311 3.3808 0.94262 1.2095 2.3804 3.0563 3.195 4.1041 2.7355 3.5182 4.398 5.6526 5.3751 6.9007l0.97063 1.2398-0.01813 4.8076-0.01813 4.8076-0.35042-0.48175c-0.19273-0.26496-1.2543-1.6724-2.3591-3.1276-2.0335-2.6786-2.4429-3.2187-4.8398-6.3853-0.73434-0.97014-2.5402-3.3514-4.013-5.2917-1.4728-1.9403-3.2666-4.3057-3.9863-5.2564-0.71968-0.95074-2.1528-2.8399-3.1846-4.1981-1.0319-1.3582-2.0202-2.6599-2.1963-2.8928s-1.7164-2.2648-3.4228-4.5156c-1.7065-2.2507-3.6554-4.8225-4.331-5.715-0.67558-0.89253-1.5784-2.0844-2.0064-2.6487-0.42794-0.56424-1.0951-1.4453-1.4827-1.9579l-0.70458-0.93203h-11.891v56.233h11.853v-9.9172c0-5.7418 0.02632-9.901 0.0625-9.8786 0.03437 0.02124 0.50818 0.61843 1.0529 1.3271 0.54471 0.70865 1.2409 1.606 1.547 1.994 0.30614 0.38806 1.0216 1.3088 1.59 2.0461 0.56836 0.73731 1.6776 2.1705 2.4651 3.1849 4.7257 6.0876 4.3389 5.5889 7.817 10.078 0.7179 0.92651 1.6084 2.068 1.9789 2.5365 0.37051 0.46859 1.0353 1.3282 1.4773 1.9103 0.44201 0.58208 0.98843 1.2885 1.2143 1.5699l0.41062 0.51153h-36.831zm47.559 32.403c-1.1206-1.449-2.1158-2.7282-4.6246-5.9443-1.3134-1.6837-2.308-2.9618-4.7236-6.0702-0.73987-0.95206-1.779-2.2856-2.3092-2.9633-1.2625-1.6139-2.6965-3.4571-4.2219-5.4262-0.6791-0.87671-1.4747-1.8951-1.768-2.2631-0.29331-0.368-1.0699-1.3676-1.7257-2.2213-0.65585-0.85372-1.3861-1.7903-1.6227-2.0814-0.23665-0.29104-0.8949-1.1324-1.4628-1.8697-1.211-1.5723-3.1066-4.0106-4.2726-5.4959-0.45378-0.57802-1.373-1.7628-2.0426-2.6328l-1.2176-1.5818 0.01813-4.772 0.01813-4.772 1.0918 1.4428c0.60051 0.79353 1.3943 1.8412 1.7639 2.3282 0.36962 0.48699 1.0918 1.4395 1.6049 2.1167 0.51309 0.67718 1.6674 2.1996 2.565 3.3832 0.89768 1.1836 1.9562 2.5806 2.3522 3.1044s1.0945 1.4446 1.5522 2.0461c0.45766 0.60149 1.1918 1.5699 1.6315 2.1519 1.3324 1.7639 3.9022 5.1562 4.7572 6.2794 1.7995 2.3644 3.2847 4.322 4.7613 6.2758 0.46774 0.6189 1.201 1.5873 1.6294 2.1519 0.42845 0.56467 1.1746 1.5481 1.6581 2.1854 0.48348 0.63729 1.1821 1.558 1.5525 2.0461s1.1773 1.5542 1.7932 2.3691c2.2718 3.006 3.1099 4.1092 3.6583 4.8154l0.56156 0.7232h11.905v-56.233h-11.924v19.838l-0.70901-0.90539c-0.38995-0.49797-1.2211-1.5721-1.8471-2.3871-0.62594-0.81492-1.4282-1.8468-1.7827-2.2931-0.35457-0.44626-0.95957-1.2241-1.3445-1.7286-0.38489-0.50447-1.0654-1.3813-1.5123-1.9485-0.44687-0.56723-1.0347-1.3255-1.3064-1.6851s-0.85971-1.1178-1.3068-1.6851-1.1767-1.5076-1.6212-2.0897-1.1741-1.5225-1.6212-2.0897c-0.79567-1.0095-1.6033-2.0514-4.0938-5.2813-0.6791-0.88073-1.4119-1.8209-1.6285-2.0893-0.2166-0.26839-0.4823-0.60704-0.59046-0.75256l-0.19664-0.26458h36.776v67.733h-19.042z" fill="url(#linearGradient998)" stroke-width=".070556"/></g></svg>
